<?xml version="1.0" encoding="UTF-8" ?>
<!DOCTYPE svg PUBLIC "-//W3C//DTD SVG 1.1//EN" "http://www.w3.org/Graphics/SVG/1.1/DTD/svg11.dtd">
<svg width="2440pt" height="637pt" viewBox="0 0 2440 637" version="1.1" xmlns="http://www.w3.org/2000/svg">
<g id="#ffffffff">
<path fill="#ffffff" opacity="1.00" d=" M 292.12 1.13 C 364.63 -4.89 439.16 14.72 498.88 56.40 C 555.62 95.41 599.14 153.37 620.39 218.89 C 634.52 262.42 639.55 308.95 634.19 354.43 C 629.70 391.95 618.95 428.81 601.72 462.48 C 573.39 518.14 528.33 565.07 473.86 595.62 C 430.29 620.24 380.74 633.82 330.82 636.09 C 322.36 637.04 313.80 637.02 305.34 636.07 C 267.84 634.38 230.60 626.23 195.89 611.89 C 164.94 599.09 136.20 581.12 110.76 559.36 C 79.78 532.76 54.09 500.08 35.31 463.84 C 17.47 429.39 6.42 391.54 1.99 353.03 C -3.12 308.06 1.95 262.12 15.87 219.10 C 32.91 166.42 64.38 118.61 105.50 81.59 C 130.39 59.35 158.66 40.81 189.20 27.30 C 221.73 12.94 256.71 4.18 292.12 1.13 M 291.04 59.95 C 247.26 64.14 204.99 80.54 168.97 105.62 C 173.86 110.93 178.92 116.08 183.79 121.40 C 192.14 116.82 201.59 114.36 211.08 113.76 C 215.53 113.32 219.74 115.11 224.11 115.56 C 231.38 116.54 238.58 118.08 245.86 119.02 C 249.68 119.55 253.82 118.52 256.51 115.65 C 262.92 108.68 269.24 101.63 275.63 94.65 C 279.01 90.97 282.95 87.83 287.16 85.14 C 309.04 71.40 340.03 74.13 358.64 92.28 C 366.67 100.60 374.24 109.33 382.01 117.90 C 386.66 120.14 392.10 118.86 396.98 118.08 C 401.83 117.15 406.77 116.69 411.54 115.39 C 420.16 112.61 429.51 113.58 438.15 115.76 C 455.89 119.85 470.98 132.98 478.35 149.52 C 483.74 161.32 484.00 174.46 485.19 187.14 C 485.32 191.68 489.02 195.43 493.20 196.73 C 503.50 201.36 514.67 204.47 523.81 211.33 C 536.02 219.99 544.93 233.32 547.98 248.00 C 551.38 261.37 549.12 275.80 543.07 288.06 C 538.20 296.80 532.99 305.34 528.03 314.02 C 526.58 316.62 526.73 319.97 528.24 322.51 C 532.18 329.28 536.14 336.05 540.10 342.82 C 545.99 352.43 549.00 363.72 549.25 374.95 C 549.00 388.38 544.88 401.96 536.55 412.62 C 529.37 422.46 518.80 429.36 507.46 433.49 C 500.79 436.65 493.41 438.49 487.27 442.65 C 498.77 454.85 510.26 467.07 521.83 479.21 C 544.47 450.63 560.92 417.22 570.02 381.92 C 579.91 342.14 580.27 300.05 571.38 260.05 C 563.72 227.07 549.52 195.64 529.99 167.99 C 501.68 128.27 462.19 96.54 417.01 78.04 C 377.45 61.38 333.65 55.65 291.04 59.95 M 308.99 132.97 C 302.45 140.09 295.96 147.25 289.49 154.44 C 278.40 166.19 262.11 172.45 246.06 172.18 C 240.41 170.97 234.69 170.15 228.98 169.21 C 235.11 175.68 241.24 182.15 247.33 188.66 C 259.37 184.37 272.27 182.09 285.06 183.40 C 299.16 184.89 313.17 189.22 324.91 197.33 C 343.06 209.28 356.20 228.61 360.53 249.92 C 364.83 267.51 362.36 286.30 355.20 302.80 C 361.92 310.05 368.81 317.15 375.52 324.41 C 385.04 309.99 404.04 302.51 420.78 307.06 C 433.86 309.91 444.98 319.74 450.06 332.04 C 453.02 340.02 454.45 348.86 452.21 357.22 C 450.02 368.69 442.50 378.79 432.57 384.81 C 439.38 391.88 446.05 399.09 452.83 406.19 C 463.33 396.15 477.70 392.53 490.56 386.62 C 495.51 383.93 498.13 377.59 495.82 372.32 C 491.36 364.44 486.63 356.72 482.20 348.82 C 473.14 331.23 473.01 309.46 481.75 291.72 C 486.59 282.69 492.30 274.13 496.98 265.03 C 497.58 260.91 496.56 255.34 492.06 253.76 C 483.93 250.09 475.58 246.91 467.40 243.34 C 452.15 236.36 439.95 222.52 435.88 206.14 C 433.23 196.47 433.37 186.36 432.13 176.47 C 431.25 171.27 426.45 166.77 421.06 166.89 C 415.35 166.85 409.79 168.46 404.16 169.19 C 398.69 169.78 393.58 172.27 388.02 172.25 C 369.17 172.66 351.02 163.23 338.80 149.18 C 333.03 142.92 327.41 136.49 321.58 130.30 C 317.40 128.69 311.99 129.36 308.99 132.97 M 59.67 293.95 C 55.92 335.63 61.76 378.34 78.03 416.98 C 95.64 460.00 125.23 497.86 162.31 525.83 C 190.75 547.18 223.61 562.61 258.18 570.95 C 297.72 580.07 339.35 580.03 378.86 570.78 C 415.76 561.74 450.75 544.69 480.37 520.87 C 475.38 515.68 470.45 510.44 465.54 505.18 C 454.04 516.35 438.06 522.67 422.05 522.34 C 412.46 520.45 402.77 519.10 393.15 517.41 C 390.28 517.06 387.21 516.62 384.46 517.73 C 379.49 519.64 376.78 524.55 373.11 528.11 C 366.08 535.40 360.06 543.85 351.56 549.56 C 343.54 555.39 333.76 558.25 324.02 559.45 C 306.25 561.17 287.62 554.69 275.51 541.39 C 269.08 534.16 262.40 527.14 256.07 519.82 C 253.65 516.21 248.68 517.11 244.97 517.20 C 237.12 518.55 229.14 519.39 221.48 521.69 C 211.55 523.62 201.29 521.61 191.84 518.41 C 173.63 511.64 159.25 495.43 154.83 476.49 C 152.42 467.52 152.41 458.16 151.39 448.99 C 151.23 444.86 148.15 441.19 144.34 439.80 C 137.45 436.96 130.57 434.11 123.70 431.21 C 106.32 423.38 92.60 407.29 88.69 388.50 C 85.20 375.19 87.36 360.80 93.28 348.51 C 98.14 339.70 103.40 331.13 108.39 322.40 C 109.99 319.72 109.93 316.16 108.28 313.52 C 103.53 305.26 98.56 297.13 93.96 288.79 C 87.74 275.94 85.44 260.89 89.12 246.96 C 92.94 228.94 105.68 213.11 122.43 205.46 C 130.20 202.15 138.02 198.97 145.80 195.70 C 148.58 194.60 150.98 192.06 151.22 188.98 C 151.69 183.95 152.09 178.91 152.59 173.88 C 143.42 164.14 134.23 154.41 125.03 144.70 C 88.07 185.74 64.40 238.85 59.67 293.95 M 164.68 243.76 C 157.39 246.86 150.03 249.81 142.75 252.93 C 137.41 255.55 134.64 262.52 137.49 267.90 C 141.82 275.42 146.27 282.86 150.58 290.39 C 160.71 309.59 160.08 334.05 148.70 352.58 C 144.98 358.91 141.32 365.28 137.57 371.59 C 136.44 373.49 135.26 375.65 135.89 377.93 C 136.48 380.63 136.81 383.96 139.70 385.22 C 148.55 389.64 157.99 392.80 166.96 396.97 C 180.83 403.78 192.00 416.27 196.48 431.13 C 199.43 440.46 199.57 450.30 200.54 459.95 C 200.53 464.19 202.29 468.60 205.97 470.95 C 212.05 474.84 219.46 471.63 226.01 470.97 C 233.12 470.38 239.76 467.07 246.96 467.41 C 264.04 467.68 280.31 475.88 292.03 488.07 C 298.18 494.89 304.40 501.66 310.53 508.50 C 314.42 511.33 320.59 510.57 323.79 506.95 C 328.37 502.08 332.79 497.06 337.31 492.14 C 346.76 481.02 359.44 472.15 373.84 469.02 C 379.60 467.66 385.73 466.62 391.54 468.39 C 399.64 469.83 407.80 471.02 415.92 472.45 C 421.10 473.36 427.36 473.11 430.50 468.17 C 391.83 427.07 352.96 386.14 314.30 345.02 C 297.67 352.73 278.52 355.86 260.50 351.67 C 227.40 345.32 199.80 317.37 193.82 284.20 C 189.69 264.91 193.55 244.34 202.95 227.14 C 199.57 223.67 196.31 220.10 192.95 216.62 C 186.75 228.38 176.90 238.34 164.68 243.76 M 295.13 239.23 C 299.79 244.16 304.42 249.11 309.11 254.01 C 305.86 247.95 300.90 242.93 295.13 239.23 M 241.75 268.27 C 240.49 287.64 257.66 305.85 277.06 305.72 C 265.36 293.17 253.51 280.77 241.75 268.27 Z" />
<path fill="#ffffff" opacity="1.00" d=" M 1035.50 172.72 C 1044.28 171.02 1054.13 172.01 1061.45 177.52 C 1073.88 186.75 1073.79 208.04 1061.46 217.30 C 1055.09 222.17 1046.66 223.51 1038.85 222.66 C 1032.16 221.97 1025.46 219.13 1021.12 213.85 C 1015.16 206.63 1014.19 196.13 1017.30 187.49 C 1020.09 179.69 1027.50 174.25 1035.50 172.72 Z" />
<path fill="#ffffff" opacity="1.00" d=" M 763.21 196.27 C 772.82 183.86 788.64 178.01 803.92 177.18 C 816.99 176.38 830.26 177.94 842.66 182.23 C 839.70 194.47 836.69 206.70 833.77 218.96 C 827.18 216.37 819.90 214.85 812.85 216.11 C 808.45 216.87 804.51 219.79 802.65 223.86 C 799.46 230.34 800.26 237.76 800.17 244.75 C 809.50 244.75 818.83 244.75 828.17 244.75 C 828.17 257.64 828.17 270.53 828.17 283.41 C 818.83 283.41 809.50 283.42 800.17 283.41 C 800.16 323.25 800.17 363.08 800.17 402.92 C 783.64 402.92 767.11 402.92 750.58 402.92 C 750.59 363.08 750.58 323.25 750.58 283.42 C 743.55 283.41 736.53 283.41 729.50 283.42 C 729.49 271.17 729.50 258.93 729.50 246.69 C 736.53 246.14 743.55 245.57 750.59 245.03 C 750.05 228.12 752.33 209.91 763.21 196.27 Z" />
<path fill="#ffffff" opacity="1.00" d=" M 1727.83 195.83 C 1744.41 195.83 1761.00 195.83 1777.58 195.83 C 1777.59 222.14 1777.58 248.44 1777.58 274.74 C 1800.25 274.75 1822.92 274.75 1845.58 274.75 C 1845.58 248.44 1845.58 222.14 1845.59 195.83 C 1862.08 195.83 1878.58 195.83 1895.08 195.83 C 1895.08 264.86 1895.08 333.89 1895.08 402.92 C 1878.58 402.92 1862.08 402.92 1845.58 402.92 C 1845.59 374.58 1845.58 346.25 1845.58 317.92 C 1822.92 317.91 1800.25 317.92 1777.58 317.92 C 1777.58 346.25 1777.58 374.58 1777.59 402.91 C 1761.00 402.92 1744.42 402.92 1727.83 402.92 C 1727.83 333.89 1727.83 264.86 1727.83 195.83 Z" />
<path fill="#ffffff" opacity="1.00" d=" M 1942.83 195.83 C 1986.55 195.83 2030.28 195.83 2074.00 195.83 C 2074.00 209.67 2074.00 223.50 2074.00 237.33 C 2046.86 237.33 2019.72 237.33 1992.58 237.34 C 1992.58 250.08 1992.58 262.83 1992.58 275.58 C 2015.64 275.58 2038.69 275.59 2061.75 275.58 C 2061.75 289.50 2061.75 303.42 2061.74 317.34 C 2038.69 317.33 2015.63 317.33 1992.58 317.34 C 1992.58 331.95 1992.58 346.55 1992.58 361.16 C 2020.75 361.16 2048.92 361.16 2077.08 361.17 C 2077.08 375.08 2077.08 389.00 2077.08 402.92 C 2032.33 402.92 1987.58 402.92 1942.83 402.92 C 1942.83 333.89 1942.83 264.86 1942.83 195.83 Z" />
<path fill="#ffffff" opacity="1.00" d=" M 2117.83 195.83 C 2134.41 195.83 2151.00 195.83 2167.58 195.83 C 2167.59 250.94 2167.58 306.05 2167.58 361.16 C 2194.44 361.16 2221.31 361.16 2248.17 361.16 C 2248.16 375.08 2248.17 389.00 2248.17 402.92 C 2204.72 402.92 2161.28 402.92 2117.83 402.92 C 2117.83 333.89 2117.83 264.86 2117.83 195.83 Z" />
<path fill="#ffffff" opacity="1.00" d=" M 2283.92 195.83 C 2305.61 195.83 2327.31 195.83 2349.01 195.83 C 2365.19 195.62 2381.69 196.37 2397.15 201.59 C 2408.75 205.41 2419.70 212.05 2427.19 221.85 C 2433.44 229.91 2437.08 239.76 2438.57 249.79 C 2441.47 266.20 2439.11 283.74 2431.30 298.52 C 2422.27 315.37 2404.90 326.27 2386.69 330.80 C 2369.43 335.53 2351.42 334.00 2333.75 334.25 C 2333.75 357.14 2333.74 380.03 2333.75 402.92 C 2317.14 402.92 2300.53 402.92 2283.92 402.92 C 2283.92 333.89 2283.92 264.86 2283.92 195.83 M 2333.75 235.42 C 2333.75 255.28 2333.75 275.14 2333.75 295.00 C 2347.10 294.40 2361.06 296.85 2373.86 291.95 C 2382.01 288.95 2388.27 281.67 2390.06 273.18 C 2391.83 264.72 2391.84 255.21 2387.26 247.59 C 2382.98 240.70 2374.85 237.53 2367.16 236.34 C 2356.10 234.68 2344.88 235.69 2333.75 235.42 Z" />
<path fill="#ffffff" opacity="1.00" d=" M 869.14 261.12 C 881.71 249.12 898.60 241.61 916.01 240.91 C 931.82 240.29 948.35 244.00 960.95 253.95 C 974.09 264.09 981.80 279.85 984.85 295.90 C 987.45 309.90 987.57 324.45 984.65 338.41 C 953.69 338.43 922.73 338.40 891.77 338.42 C 893.51 346.65 897.21 354.78 903.78 360.26 C 912.06 367.32 923.45 369.34 934.04 368.85 C 944.91 368.38 955.27 364.31 964.58 358.90 C 970.03 368.85 975.54 378.77 981.00 388.72 C 967.09 398.45 950.62 404.37 933.78 406.27 C 913.42 408.35 891.92 403.94 875.21 391.77 C 861.82 382.16 852.28 367.71 847.77 351.93 C 843.69 337.71 842.91 322.58 845.15 307.97 C 847.88 290.34 856.11 273.43 869.14 261.12 M 902.04 284.93 C 895.75 290.12 892.45 297.99 890.93 305.82 C 908.89 305.83 926.86 305.85 944.82 305.81 C 944.67 299.86 943.78 293.69 940.54 288.57 C 937.98 284.42 933.80 281.39 929.14 280.00 C 920.03 277.34 909.41 278.66 902.04 284.93 Z" />
<path fill="#ffffff" opacity="1.00" d=" M 1273.62 261.70 C 1291.08 251.20 1310.49 243.34 1330.90 241.39 C 1347.89 239.81 1366.30 241.33 1380.77 251.22 C 1392.61 259.19 1399.77 272.50 1402.86 286.17 C 1406.48 300.85 1405.56 316.07 1405.67 331.04 C 1405.67 355.00 1405.66 378.96 1405.67 402.91 C 1392.22 402.91 1378.77 402.93 1365.32 402.91 C 1364.19 397.54 1363.06 392.18 1361.94 386.82 C 1359.96 387.35 1358.58 388.90 1357.06 390.14 C 1347.61 398.00 1336.39 404.18 1324.13 406.09 C 1310.22 408.32 1294.97 405.32 1284.22 395.84 C 1275.22 388.10 1269.92 376.62 1268.71 364.92 C 1267.47 353.33 1269.47 340.94 1276.54 331.42 C 1284.39 320.69 1296.69 314.38 1308.98 310.11 C 1324.23 304.88 1340.25 302.37 1356.22 300.55 C 1355.58 294.36 1353.37 287.69 1347.85 284.19 C 1340.80 279.73 1331.91 279.91 1323.96 281.11 C 1312.14 283.13 1301.28 288.56 1290.89 294.30 C 1285.13 283.43 1279.37 272.57 1273.62 261.70 M 1327.78 338.02 C 1323.00 340.40 1318.36 343.94 1316.41 349.09 C 1314.42 354.41 1315.18 361.39 1320.00 364.97 C 1324.85 368.53 1331.33 368.80 1337.09 367.95 C 1344.82 366.72 1351.03 361.42 1356.18 355.85 C 1356.14 347.45 1356.17 339.05 1356.16 330.65 C 1346.48 331.99 1336.64 333.70 1327.78 338.02 Z" />
<path fill="#ffffff" opacity="1.00" d=" M 1525.55 242.33 C 1537.22 239.83 1549.87 240.25 1560.88 245.17 C 1570.63 249.52 1577.94 258.17 1581.93 267.94 C 1588.49 283.42 1588.33 300.57 1588.17 317.08 C 1588.17 345.69 1588.17 374.30 1588.17 402.92 C 1571.66 402.92 1555.16 402.92 1538.67 402.92 C 1538.67 372.95 1538.66 342.98 1538.67 313.01 C 1538.61 305.97 1538.57 298.67 1535.88 292.06 C 1534.28 287.99 1530.74 284.73 1526.43 283.81 C 1519.73 282.36 1512.46 283.27 1506.46 286.64 C 1501.46 289.42 1497.27 293.40 1493.17 297.34 C 1493.17 332.53 1493.17 367.72 1493.17 402.92 C 1476.66 402.92 1460.16 402.92 1443.67 402.92 C 1443.67 350.19 1443.66 297.47 1443.67 244.75 C 1457.11 244.75 1470.56 244.75 1484.01 244.75 C 1485.29 251.47 1486.35 258.23 1487.81 264.91 C 1498.39 254.62 1510.89 245.54 1525.55 242.33 Z" />
<path fill="#ffffff" opacity="1.00" d=" M 1018.41 402.91 C 1018.42 350.19 1018.41 297.47 1018.42 244.75 C 1034.92 244.75 1051.42 244.75 1067.92 244.75 C 1067.92 297.47 1067.92 350.19 1067.92 402.92 C 1051.41 402.91 1034.91 402.92 1018.41 402.91 Z" />
<path fill="#ffffff" opacity="1.00" d=" M 1091.41 244.75 C 1108.02 244.75 1124.63 244.75 1141.24 244.75 C 1148.22 266.41 1155.19 288.08 1162.17 309.74 C 1166.72 323.62 1170.06 337.85 1173.74 351.98 C 1174.15 353.23 1174.13 355.05 1175.81 355.30 C 1180.12 335.13 1184.64 314.98 1190.39 295.16 C 1195.09 278.36 1199.78 261.55 1204.49 244.74 C 1220.27 244.75 1236.04 244.74 1251.82 244.75 C 1236.81 288.40 1221.80 332.06 1206.79 375.71 C 1201.39 390.87 1196.92 406.42 1189.85 420.92 C 1184.55 431.92 1177.97 442.64 1168.51 450.56 C 1160.77 457.11 1151.10 461.14 1141.11 462.68 C 1128.76 464.46 1115.95 464.17 1103.91 460.69 C 1106.88 448.13 1109.85 435.58 1112.84 423.03 C 1122.42 426.20 1134.03 425.83 1141.90 418.86 C 1148.03 413.65 1150.08 405.58 1151.98 398.11 C 1131.78 347.00 1111.59 295.87 1091.41 244.75 Z" />
<path fill="#ffffff" opacity="1.00" d=" M 1649.60 345.80 C 1659.06 344.01 1669.44 346.82 1676.19 353.82 C 1688.15 365.85 1687.64 387.67 1675.14 399.14 C 1664.77 409.07 1646.90 409.33 1636.19 399.81 C 1623.77 389.04 1622.42 368.31 1632.75 355.68 C 1636.93 350.50 1643.05 346.99 1649.60 345.80 Z" />
<path fill="#ffffff" opacity="1.00" d=" M 279.47 377.62 C 296.25 373.53 315.04 385.02 318.75 401.96 C 323.89 419.03 312.52 438.95 295.07 442.91 C 277.68 448.30 257.32 436.45 253.71 418.55 C 248.64 400.86 261.24 380.60 279.47 377.62 Z" />
</g>
</svg>
